STARTFONT 2.1
COMMENT
COMMENT Converted from OpenType font "novamono.ttf" by "otf2bdf 3.0".
COMMENT
FONT -FreeType-NovaMono-Medium-R-Normal--48-480-72-72-P-121-ISO10646-1
SIZE 48 72 72
FONTBOUNDINGBOX 153 40 0 -8
STARTPROPERTIES 19
FOUNDRY "FreeType"
FAMILY_NAME "NovaMono"
WEIGHT_NAME "Medium"
SLANT "R"
SETWIDTH_NAME "Normal"
ADD_STYLE_NAME ""
PIXEL_SIZE 48
POINT_SIZE 480
RESOLUTION_X 72
RESOLUTION_Y 72
SPACING "P"
AVERAGE_WIDTH 121
CHARSET_REGISTRY "ISO10646"
CHARSET_ENCODING "1"
FONT_ASCENT 31
FONT_DESCENT 7
COPYRIGHT "Copyright fontcollector 2009  NovaMono is based on PortraitTextMono by fontcollector (http://fontstruct.com/fontstructors/fontcollector), which is based on PortraitMono by fontcollector (http://fontstruct.com/fontstructors/fontcollector)"
_OTF_FONTFILE "novamono.ttf"
_OTF_PSNAME "NovaMono"
ENDPROPERTIES
CHARS 195
STARTCHAR 0000
ENCODING 0
SWIDTH 291 0
DWIDTH 14 0
BBX 0 0 0 0
BITMAP
ENDCHAR
STARTCHAR 000D
ENCODING 13
SWIDTH 0 0
DWIDTH 0 0
BBX 0 0 0 0
BITMAP
ENDCHAR
STARTCHAR 0020
ENCODING 32
SWIDTH 291 0
DWIDTH 14 0
BBX 0 0 0 0
BITMAP
ENDCHAR
STARTCHAR 0021
ENCODING 33
SWIDTH 291 0
DWIDTH 14 0
BBX 4 21 4 0
BITMAP
F0
F0
F0
F0
F0
F0
F0
F0
F0
F0
F0
F0
F0
F0
F0
00
00
00
F0
F0
F0
ENDCHAR
STARTCHAR 0022
ENCODING 34
SWIDTH 291 0
DWIDTH 14 0
BBX 8 7 1 14
BITMAP
F7
F7
F7
23
62
46
C4
ENDCHAR
STARTCHAR 0023
ENCODING 35
SWIDTH 291 0
DWIDTH 14 0
BBX 12 12 0 9
BITMAP
79E0
FFF0
FFF0
FFF0
79E0
79E0
79E0
FFF0
FFF0
FFF0
79E0
79E0
ENDCHAR
STARTCHAR 0024
ENCODING 36
SWIDTH 291 0
DWIDTH 14 0
BBX 12 27 0 -3
BITMAP
0F00
0F00
0F00
3FC0
7FE0
FFF0
FFF0
EF70
EF70
EF00
EF00
FF00
FFC0
7FE0
3FF0
0FF0
0F70
0F70
EF70
EF70
FFF0
FFF0
7FE0
3FC0
0F00
0F00
0F00
ENDCHAR
STARTCHAR 0025
ENCODING 37
SWIDTH 291 0
DWIDTH 14 0
BBX 12 21 0 0
BITMAP
7870
FC70
CCF0
CCE0
FDE0
79C0
03C0
0380
0780
0700
0F00
0E00
1E00
1C00
3C00
39E0
7BF0
7330
F330
E3F0
E1E0
ENDCHAR
STARTCHAR 0026
ENCODING 38
SWIDTH 291 0
DWIDTH 14 0
BBX 12 21 0 0
BITMAP
3E00
7F00
7F00
7700
7700
7700
3E00
3E00
1C00
1C70
3EE0
3EE0
77C0
77C0
E380
E380
E7C0
F7C0
7EE0
7EE0
3C70
ENDCHAR
STARTCHAR 0027
ENCODING 39
SWIDTH 291 0
DWIDTH 14 0
BBX 4 7 4 14
BITMAP
F0
F0
F0
20
60
40
C0
ENDCHAR
STARTCHAR 0028
ENCODING 40
SWIDTH 291 0
DWIDTH 14 0
BBX 6 27 3 -3
BITMAP
3C
7C
FC
F0
E0
E0
E0
E0
E0
E0
E0
E0
E0
E0
E0
E0
E0
E0
E0
E0
E0
E0
E0
F0
FC
7C
3C
ENDCHAR
STARTCHAR 0029
ENCODING 41
SWIDTH 291 0
DWIDTH 14 0
BBX 6 27 3 -3
BITMAP
F0
F8
FC
3C
1C
1C
1C
1C
1C
1C
1C
1C
1C
1C
1C
1C
1C
1C
1C
1C
1C
1C
1C
3C
FC
F8
F0
ENDCHAR
STARTCHAR 002A
ENCODING 42
SWIDTH 291 0
DWIDTH 14 0
BBX 12 12 0 9
BITMAP
0400
0600
36C0
3FC0
1F80
7FE0
FFF0
1F80
3FC0
36C0
0600
0400
ENDCHAR
STARTCHAR 002B
ENCODING 43
SWIDTH 291 0
DWIDTH 14 0
BBX 12 12 0 5
BITMAP
0F00
0F00
0F00
0F00
0F00
FFF0
FFF0
FFF0
0F00
0F00
0F00
0F00
ENDCHAR
STARTCHAR 002C
ENCODING 44
SWIDTH 291 0
DWIDTH 14 0
BBX 4 8 4 -5
BITMAP
F0
F0
F0
20
60
40
C0
80
ENDCHAR
STARTCHAR 002D
ENCODING 45
SWIDTH 291 0
DWIDTH 14 0
BBX 12 3 0 9
BITMAP
FFF0
FFF0
FFF0
ENDCHAR
STARTCHAR 002E
ENCODING 46
SWIDTH 291 0
DWIDTH 14 0
BBX 4 3 4 0
BITMAP
F0
F0
F0
ENDCHAR
STARTCHAR 002F
ENCODING 47
SWIDTH 291 0
DWIDTH 14 0
BBX 12 21 0 0
BITMAP
0070
0070
00F0
00E0
01E0
01C0
03C0
0380
0780
0700
0F00
0E00
1E00
1C00
3C00
3800
7800
7000
F000
E000
E000
ENDCHAR
STARTCHAR 0030
ENCODING 48
SWIDTH 291 0
DWIDTH 14 0
BBX 12 21 0 0
BITMAP
3FC0
7FE0
FFF0
F0F0
E070
E070
E070
E070
E070
EF70
EF70
EF70
E070
E070
E070
E070
E070
F0F0
FFF0
7FE0
3FC0
ENDCHAR
STARTCHAR 0031
ENCODING 49
SWIDTH 291 0
DWIDTH 14 0
BBX 12 21 0 0
BITMAP
0F00
1F00
3F00
7F00
7F00
7F00
6F00
4F00
0F00
0F00
0F00
0F00
0F00
0F00
0F00
0F00
0F00
0F00
FFF0
FFF0
FFF0
ENDCHAR
STARTCHAR 0032
ENCODING 50
SWIDTH 291 0
DWIDTH 14 0
BBX 12 21 0 0
BITMAP
3FC0
7FE0
FFF0
F0F0
E070
E070
0070
0070
00F0
01F0
03E0
07C0
0F80
1F00
3E00
7C00
F800
F000
FFF0
FFF0
FFF0
ENDCHAR
STARTCHAR 0033
ENCODING 51
SWIDTH 291 0
DWIDTH 14 0
BBX 12 21 0 0
BITMAP
3FC0
7FE0
FFF0
F0F0
E070
E070
0070
0070
00F0
0FF0
0FE0
0FF0
00F0
0070
0070
E070
E070
F0F0
FFF0
7FE0
3FC0
ENDCHAR
STARTCHAR 0034
ENCODING 52
SWIDTH 291 0
DWIDTH 14 0
BBX 12 21 0 0
BITMAP
03C0
07C0
07C0
0FC0
0FC0
1DC0
1DC0
39C0
39C0
71C0
71C0
E1C0
FFF0
FFF0
FFF0
01C0
01C0
01C0
01C0
01C0
01C0
ENDCHAR
STARTCHAR 0035
ENCODING 53
SWIDTH 291 0
DWIDTH 14 0
BBX 12 21 0 0
BITMAP
FFF0
FFF0
FFF0
E000
E000
E000
E000
EF80
FFC0
FFE0
F0F0
E070
0070
0070
0070
E070
E070
F0F0
FFE0
7FC0
3F80
ENDCHAR
STARTCHAR 0036
ENCODING 54
SWIDTH 291 0
DWIDTH 14 0
BBX 12 21 0 0
BITMAP
3FC0
7FE0
FFF0
F0F0
E070
E000
E000
EF80
FFC0
FFE0
F0F0
E070
E070
E070
E070
E070
E070
F0F0
FFE0
7FC0
3F80
ENDCHAR
STARTCHAR 0037
ENCODING 55
SWIDTH 291 0
DWIDTH 14 0
BBX 12 21 0 0
BITMAP
FFF0
FFF0
FFF0
0070
00E0
00E0
01C0
01C0
0380
0380
0700
0700
0F00
0F00
0F00
0F00
0F00
0F00
0F00
0F00
0F00
ENDCHAR
STARTCHAR 0038
ENCODING 56
SWIDTH 291 0
DWIDTH 14 0
BBX 12 21 0 0
BITMAP
3FC0
7FE0
FFF0
F0F0
E070
F0F0
F9F0
7FE0
3FC0
1F80
1F80
3FC0
7FE0
F9F0
F0F0
E070
E070
F0F0
FFF0
7FE0
3FC0
ENDCHAR
STARTCHAR 0039
ENCODING 57
SWIDTH 291 0
DWIDTH 14 0
BBX 12 21 0 0
BITMAP
3FC0
7FE0
FFF0
F0F0
E070
E070
E070
E070
E070
F0F0
FFF0
7FF0
3F70
0070
0070
0070
E070
F0F0
FFF0
7FE0
3FC0
ENDCHAR
STARTCHAR 003A
ENCODING 58
SWIDTH 291 0
DWIDTH 14 0
BBX 4 12 4 0
BITMAP
F0
F0
F0
00
00
00
00
00
00
F0
F0
F0
ENDCHAR
STARTCHAR 003B
ENCODING 59
SWIDTH 291 0
DWIDTH 14 0
BBX 4 17 4 -5
BITMAP
F0
F0
F0
00
00
00
00
00
00
F0
F0
F0
20
60
40
C0
80
ENDCHAR
STARTCHAR 003C
ENCODING 60
SWIDTH 291 0
DWIDTH 14 0
BBX 12 12 0 5
BITMAP
0010
0070
01F0
07E0
1F80
7E00
FE00
1F80
07E0
01F0
0070
0010
ENDCHAR
STARTCHAR 003D
ENCODING 61
SWIDTH 291 0
DWIDTH 14 0
BBX 12 9 0 6
BITMAP
FFF0
FFF0
FFF0
0000
0000
0000
FFF0
FFF0
FFF0
ENDCHAR
STARTCHAR 003E
ENCODING 62
SWIDTH 291 0
DWIDTH 14 0
BBX 12 12 0 5
BITMAP
8000
E000
F800
7E00
1F80
07E0
07F0
1F80
7E00
F800
E000
8000
ENDCHAR
STARTCHAR 003F
ENCODING 63
SWIDTH 291 0
DWIDTH 14 0
BBX 12 21 0 0
BITMAP
3FC0
7FE0
FFF0
F0F0
E070
E070
00F0
01F0
03E0
07C0
0F80
0F00
0F00
0F00
0F00
0000
0000
0000
0F00
0F00
0F00
ENDCHAR
STARTCHAR 0040
ENCODING 64
SWIDTH 291 0
DWIDTH 14 0
BBX 12 20 0 -2
BITMAP
7FE0
7FE0
C030
CDF0
CFF0
DFF0
DFF0
FBF0
FBF0
F9F0
F9F0
FBF0
FBF0
DFF0
DFE0
CFE0
CDC0
C000
7FE0
7FE0
ENDCHAR
STARTCHAR 0041
ENCODING 65
SWIDTH 291 0
DWIDTH 14 0
BBX 12 21 0 0
BITMAP
3FC0
7FE0
FFF0
F0F0
E070
E070
E070
E070
E070
FFF0
FFF0
FFF0
E070
E070
E070
E070
E070
E070
E070
E070
E070
ENDCHAR
STARTCHAR 0042
ENCODING 66
SWIDTH 291 0
DWIDTH 14 0
BBX 12 21 0 0
BITMAP
FFC0
FFE0
FFF0
E0F0
E070
E070
E070
E070
E0F0
FFF0
FFE0
FFF0
E0F0
E070
E070
E070
E070
E0F0
FFF0
FFE0
FFC0
ENDCHAR
STARTCHAR 0043
ENCODING 67
SWIDTH 291 0
DWIDTH 14 0
BBX 12 21 0 0
BITMAP
3FC0
7FE0
FFF0
F0F0
E070
E070
E000
E000
E000
E000
E000
E000
E000
E000
E000
E070
E070
F0F0
FFF0
7FE0
3FC0
ENDCHAR
STARTCHAR 0044
ENCODING 68
SWIDTH 291 0
DWIDTH 14 0
BBX 12 21 0 0
BITMAP
FF00
FF80
FFC0
E3E0
E1F0
E0F0
E070
E070
E070
E070
E070
E070
E070
E070
E070
E0F0
E1F0
E3E0
FFC0
FF80
FF00
ENDCHAR
STARTCHAR 0045
ENCODING 69
SWIDTH 291 0
DWIDTH 14 0
BBX 12 21 0 0
BITMAP
FFF0
FFF0
FFF0
E000
E000
E000
E000
E000
E000
FF80
FF80
FF80
E000
E000
E000
E000
E000
E000
FFF0
FFF0
FFF0
ENDCHAR
STARTCHAR 0046
ENCODING 70
SWIDTH 291 0
DWIDTH 14 0
BBX 12 21 0 0
BITMAP
FFF0
FFF0
FFF0
E000
E000
E000
E000
E000
E000
FF80
FF80
FF80
E000
E000
E000
E000
E000
E000
E000
E000
E000
ENDCHAR
STARTCHAR 0047
ENCODING 71
SWIDTH 291 0
DWIDTH 14 0
BBX 12 21 0 0
BITMAP
3FC0
7FE0
FFF0
F0F0
E070
E070
E000
E000
E000
E3F0
E3F0
E3F0
E070
E070
E070
E070
E070
F0F0
FFF0
7FE0
3FC0
ENDCHAR
STARTCHAR 0048
ENCODING 72
SWIDTH 291 0
DWIDTH 14 0
BBX 12 21 0 0
BITMAP
E070
E070
E070
E070
E070
E070
E070
E070
E070
FFF0
FFF0
FFF0
E070
E070
E070
E070
E070
E070
E070
E070
E070
ENDCHAR
STARTCHAR 0049
ENCODING 73
SWIDTH 291 0
DWIDTH 14 0
BBX 12 21 0 0
BITMAP
FFF0
FFF0
FFF0
0F00
0F00
0F00
0F00
0F00
0F00
0F00
0F00
0F00
0F00
0F00
0F00
0F00
0F00
0F00
FFF0
FFF0
FFF0
ENDCHAR
STARTCHAR 004A
ENCODING 74
SWIDTH 291 0
DWIDTH 14 0
BBX 12 21 0 0
BITMAP
03F0
03F0
03F0
0070
0070
0070
0070
0070
0070
0070
0070
0070
0070
0070
0070
E070
E070
F0F0
FFF0
7FE0
3FC0
ENDCHAR
STARTCHAR 004B
ENCODING 75
SWIDTH 291 0
DWIDTH 14 0
BBX 12 21 0 0
BITMAP
E070
E070
E070
E070
E070
E070
E070
E1F0
E7F0
FFC0
FF00
FFC0
F7F0
E1F0
E070
E070
E070
E070
E070
E070
E070
ENDCHAR
STARTCHAR 004C
ENCODING 76
SWIDTH 291 0
DWIDTH 14 0
BBX 12 21 0 0
BITMAP
E000
E000
E000
E000
E000
E000
E000
E000
E000
E000
E000
E000
E000
E000
E000
E000
E000
E000
FFF0
FFF0
FFF0
ENDCHAR
STARTCHAR 004D
ENCODING 77
SWIDTH 291 0
DWIDTH 14 0
BBX 12 21 0 0
BITMAP
E070
F0F0
F0F0
F9F0
F9F0
FFF0
FFF0
EF70
EF70
E670
E670
E470
E070
E070
E070
E070
E070
E070
E070
E070
E070
ENDCHAR
STARTCHAR 004E
ENCODING 78
SWIDTH 291 0
DWIDTH 14 0
BBX 12 21 0 0
BITMAP
E070
E070
F070
F070
F870
F870
FC70
FC70
FE70
EE70
EF70
E770
E7F0
E3F0
E3F0
E1F0
E1F0
E0F0
E0F0
E070
E070
ENDCHAR
STARTCHAR 004F
ENCODING 79
SWIDTH 291 0
DWIDTH 14 0
BBX 12 21 0 0
BITMAP
3FC0
7FE0
FFF0
F0F0
E070
E070
E070
E070
E070
E070
E070
E070
E070
E070
E070
E070
E070
F0F0
FFF0
7FE0
3FC0
ENDCHAR
STARTCHAR 0050
ENCODING 80
SWIDTH 291 0
DWIDTH 14 0
BBX 12 21 0 0
BITMAP
FFC0
FFE0
FFF0
E0F0
E070
E070
E070
E070
E0F0
FFF0
FFE0
FFC0
E000
E000
E000
E000
E000
E000
E000
E000
E000
ENDCHAR
STARTCHAR 0051
ENCODING 81
SWIDTH 291 0
DWIDTH 14 0
BBX 12 26 0 -5
BITMAP
3F80
3FC0
7FE0
F0F0
E070
E070
E070
E070
E070
E070
E070
E070
E070
E070
E070
E070
E070
F0F0
FFF0
7FE0
3FC0
0F00
0F00
0FE0
07E0
03E0
ENDCHAR
STARTCHAR 0052
ENCODING 82
SWIDTH 291 0
DWIDTH 14 0
BBX 12 21 0 0
BITMAP
FFC0
FFE0
FFF0
E0F0
E070
E070
E070
E070
E0F0
FFF0
FFE0
FFC0
E380
E1C0
E1C0
E0E0
E0E0
E070
E070
E070
E070
ENDCHAR
STARTCHAR 0053
ENCODING 83
SWIDTH 291 0
DWIDTH 14 0
BBX 12 21 0 0
BITMAP
3FC0
7FE0
FFF0
F0F0
E070
E070
E000
E000
F000
FFC0
7FE0
3FF0
00F0
0070
0070
E070
E070
F0F0
FFF0
7FE0
3FC0
ENDCHAR
STARTCHAR 0054
ENCODING 84
SWIDTH 291 0
DWIDTH 14 0
BBX 12 21 0 0
BITMAP
FFF0
FFF0
FFF0
0F00
0F00
0F00
0F00
0F00
0F00
0F00
0F00
0F00
0F00
0F00
0F00
0F00
0F00
0F00
0F00
0F00
0F00
ENDCHAR
STARTCHAR 0055
ENCODING 85
SWIDTH 291 0
DWIDTH 14 0
BBX 12 21 0 0
BITMAP
E070
E070
E070
E070
E070
E070
E070
E070
E070
E070
E070
E070
E070
E070
E070
E070
E070
F0F0
FFF0
7FE0
3FC0
ENDCHAR
STARTCHAR 0056
ENCODING 86
SWIDTH 291 0
DWIDTH 14 0
BBX 12 21 0 0
BITMAP
E070
E070
E070
E070
E070
E070
E070
E070
E070
E070
E070
E070
E070
70E0
70E0
39C0
39C0
1F80
1F80
0F00
0F00
ENDCHAR
STARTCHAR 0057
ENCODING 87
SWIDTH 291 0
DWIDTH 14 0
BBX 12 21 0 0
BITMAP
E070
E070
E070
E070
E070
E070
E070
E070
E070
E470
E670
E670
EF70
EF70
FFF0
FFF0
F9F0
F9F0
F0F0
F0F0
E070
ENDCHAR
STARTCHAR 0058
ENCODING 88
SWIDTH 291 0
DWIDTH 14 0
BBX 12 21 0 0
BITMAP
E070
E070
F0F0
70E0
79E0
39C0
3FC0
1F80
1F80
0F00
0F00
0F00
1F80
1F80
3FC0
39C0
79E0
70E0
F0F0
E070
E070
ENDCHAR
STARTCHAR 0059
ENCODING 89
SWIDTH 291 0
DWIDTH 14 0
BBX 12 21 0 0
BITMAP
E070
E070
F0F0
70E0
79E0
39C0
3FC0
1F80
1F80
0F00
0F00
0F00
0F00
0F00
0F00
0F00
0F00
0F00
0F00
0F00
0F00
ENDCHAR
STARTCHAR 005A
ENCODING 90
SWIDTH 291 0
DWIDTH 14 0
BBX 12 21 0 0
BITMAP
FFF0
FFF0
FFF0
00E0
01E0
01C0
03C0
0380
0780
0700
0F00
0E00
1E00
1C00
3C00
3800
7800
7000
FFF0
FFF0
FFF0
ENDCHAR
STARTCHAR 005B
ENCODING 91
SWIDTH 291 0
DWIDTH 14 0
BBX 6 27 3 -3
BITMAP
FC
FC
FC
E0
E0
E0
E0
E0
E0
E0
E0
E0
E0
E0
E0
E0
E0
E0
E0
E0
E0
E0
E0
E0
FC
FC
FC
ENDCHAR
STARTCHAR 005C
ENCODING 92
SWIDTH 291 0
DWIDTH 14 0
BBX 12 21 0 0
BITMAP
E000
E000
F000
7000
7800
3800
3C00
1C00
1E00
0E00
0F00
0700
0780
0380
03C0
01C0
01E0
00E0
00F0
0070
0070
ENDCHAR
STARTCHAR 005D
ENCODING 93
SWIDTH 291 0
DWIDTH 14 0
BBX 6 27 3 -3
BITMAP
FC
FC
FC
1C
1C
1C
1C
1C
1C
1C
1C
1C
1C
1C
1C
1C
1C
1C
1C
1C
1C
1C
1C
1C
FC
FC
FC
ENDCHAR
STARTCHAR 005E
ENCODING 94
SWIDTH 291 0
DWIDTH 14 0
BBX 10 9 1 12
BITMAP
0800
0C00
0C00
1E00
1E00
3F00
3300
7380
E1C0
ENDCHAR
STARTCHAR 005F
ENCODING 95
SWIDTH 291 0
DWIDTH 14 0
BBX 12 3 0 -3
BITMAP
FFF0
FFF0
FFF0
ENDCHAR
STARTCHAR 0060
ENCODING 96
SWIDTH 291 0
DWIDTH 14 0
BBX 6 7 3 14
BITMAP
E0
60
70
30
38
18
1C
ENDCHAR
STARTCHAR 0061
ENCODING 97
SWIDTH 291 0
DWIDTH 14 0
BBX 12 15 0 0
BITMAP
3F70
7FF0
FFF0
F0F0
E070
E070
E070
E070
E070
E070
E070
F0F0
FFF0
7FF0
3F70
ENDCHAR
STARTCHAR 0062
ENCODING 98
SWIDTH 291 0
DWIDTH 14 0
BBX 12 21 0 0
BITMAP
E000
E000
E000
E000
E000
E000
EFC0
FFE0
FFF0
F0F0
E070
E070
E070
E070
E070
E070
E070
F0F0
FFF0
FFE0
EFC0
ENDCHAR
STARTCHAR 0063
ENCODING 99
SWIDTH 291 0
DWIDTH 14 0
BBX 12 15 0 0
BITMAP
3FC0
7FE0
FFF0
F0F0
E070
E000
E000
E000
E000
E000
E070
F0F0
FFF0
7FE0
3FC0
ENDCHAR
STARTCHAR 0064
ENCODING 100
SWIDTH 291 0
DWIDTH 14 0
BBX 12 21 0 0
BITMAP
0070
0070
0070
0070
0070
0070
3F70
7FF0
FFF0
F0F0
E070
E070
E070
E070
E070
E070
E070
F0F0
FFF0
7FF0
3F70
ENDCHAR
STARTCHAR 0065
ENCODING 101
SWIDTH 291 0
DWIDTH 14 0
BBX 12 15 0 0
BITMAP
3FC0
7FE0
FFF0
F0F0
E070
E070
FFF0
FFF0
FFF0
E000
E070
F0F0
FFF0
7FE0
3FC0
ENDCHAR
STARTCHAR 0066
ENCODING 102
SWIDTH 291 0
DWIDTH 14 0
BBX 12 21 0 0
BITMAP
0FC0
1FE0
3FF0
7CF0
7870
7800
FFE0
FFE0
FFE0
7800
7800
7800
7800
7800
7800
7800
7800
7800
7800
7800
7800
ENDCHAR
STARTCHAR 0067
ENCODING 103
SWIDTH 291 0
DWIDTH 14 0
BBX 12 23 0 -8
BITMAP
3F70
7FF0
FFF0
F0F0
E070
E070
E070
E070
E070
E070
E070
F0F0
FFF0
7FF0
3F70
0070
0070
E070
E070
F0F0
FFE0
7FC0
3FC0
ENDCHAR
STARTCHAR 0068
ENCODING 104
SWIDTH 291 0
DWIDTH 14 0
BBX 12 21 0 0
BITMAP
E000
E000
E000
E000
E000
E000
EFC0
FFE0
FFF0
F0F0
E070
E070
E070
E070
E070
E070
E070
E070
E070
E070
E070
ENDCHAR
STARTCHAR 0069
ENCODING 105
SWIDTH 291 0
DWIDTH 14 0
BBX 12 21 0 0
BITMAP
0F00
0F00
0F00
0000
0000
0000
1F00
1F00
1F00
0F00
0F00
0F00
0F00
0F00
0F00
0F00
0F00
0F00
FFF0
FFF0
FFF0
ENDCHAR
STARTCHAR 006A
ENCODING 106
SWIDTH 291 0
DWIDTH 14 0
BBX 12 29 0 -8
BITMAP
0070
0070
0070
0000
0000
0000
01F0
01F0
01F0
01F0
0070
0070
0070
0070
0070
0070
0070
0070
0070
0070
0070
0070
0070
E070
E070
F0F0
FFF0
7FE0
3FC0
ENDCHAR
STARTCHAR 006B
ENCODING 107
SWIDTH 291 0
DWIDTH 14 0
BBX 12 21 0 0
BITMAP
E000
E000
E000
E000
E000
E000
E070
E070
E070
E0F0
E3F0
EFC0
FF00
FF80
F7E0
E1F0
E070
E070
E070
E070
E070
ENDCHAR
STARTCHAR 006C
ENCODING 108
SWIDTH 291 0
DWIDTH 14 0
BBX 12 21 0 0
BITMAP
7F00
7F00
7F00
0F00
0F00
0F00
0F00
0F00
0F00
0F00
0F00
0F00
0F00
0F00
0F00
0F00
0F00
0F00
FFF0
FFF0
FFF0
ENDCHAR
STARTCHAR 006D
ENCODING 109
SWIDTH 291 0
DWIDTH 14 0
BBX 12 15 0 0
BITMAP
EFC0
FFE0
FFF0
FFF0
EF70
EF70
EF70
EF70
EF70
EF70
EF70
EF70
EF70
EF70
EF70
ENDCHAR
STARTCHAR 006E
ENCODING 110
SWIDTH 291 0
DWIDTH 14 0
BBX 12 15 0 0
BITMAP
EFC0
FFE0
FFF0
F0F0
E070
E070
E070
E070
E070
E070
E070
E070
E070
E070
E070
ENDCHAR
STARTCHAR 006F
ENCODING 111
SWIDTH 291 0
DWIDTH 14 0
BBX 12 15 0 0
BITMAP
3FC0
7FE0
FFF0
F0F0
E070
E070
E070
E070
E070
E070
E070
F0F0
FFF0
7FE0
3FC0
ENDCHAR
STARTCHAR 0070
ENCODING 112
SWIDTH 291 0
DWIDTH 14 0
BBX 12 23 0 -8
BITMAP
EFC0
FFE0
FFF0
F0F0
E070
E070
E070
E070
E070
E070
E070
F0F0
FFF0
FFE0
EFC0
E000
E000
E000
E000
E000
E000
E000
E000
ENDCHAR
STARTCHAR 0071
ENCODING 113
SWIDTH 291 0
DWIDTH 14 0
BBX 12 23 0 -8
BITMAP
3F70
7FF0
FFF0
F0F0
E070
E070
E070
E070
E070
E070
E070
F0F0
FFF0
7FF0
3F70
0070
0070
0070
0070
0070
0070
0070
0070
ENDCHAR
STARTCHAR 0072
ENCODING 114
SWIDTH 291 0
DWIDTH 14 0
BBX 12 15 0 0
BITMAP
EFC0
FFE0
FFF0
F0F0
E070
E000
E000
E000
E000
E000
E000
E000
E000
E000
E000
ENDCHAR
STARTCHAR 0073
ENCODING 115
SWIDTH 291 0
DWIDTH 14 0
BBX 12 15 0 0
BITMAP
3FC0
7FE0
FFF0
F0F0
E070
F000
FFC0
7FE0
3FF0
00F0
E070
F0F0
FFF0
7FE0
3FC0
ENDCHAR
STARTCHAR 0074
ENCODING 116
SWIDTH 291 0
DWIDTH 14 0
BBX 12 21 0 0
BITMAP
7800
7800
7800
7800
7800
7800
FFE0
FFE0
FFE0
7800
7800
7800
7800
7800
7800
7800
7870
7CF0
3FF0
1FE0
0FC0
ENDCHAR
STARTCHAR 0075
ENCODING 117
SWIDTH 291 0
DWIDTH 14 0
BBX 12 15 0 0
BITMAP
E070
E070
E070
E070
E070
E070
E070
E070
E070
E070
E070
F0F0
FFF0
7FF0
3F70
ENDCHAR
STARTCHAR 0076
ENCODING 118
SWIDTH 291 0
DWIDTH 14 0
BBX 12 15 0 0
BITMAP
E070
E070
E070
E070
E070
E070
E070
70E0
70E0
39C0
39C0
1F80
1F80
0F00
0F00
ENDCHAR
STARTCHAR 0077
ENCODING 119
SWIDTH 291 0
DWIDTH 14 0
BBX 12 15 0 0
BITMAP
E070
E070
E070
E070
E070
E070
E070
EF70
EF70
EF70
EF70
FFF0
FFF0
7FE0
39C0
ENDCHAR
STARTCHAR 0078
ENCODING 120
SWIDTH 291 0
DWIDTH 14 0
BBX 12 15 0 0
BITMAP
E070
E070
E070
E070
E070
F9F0
7FE0
1F80
7FE0
F9F0
E070
E070
E070
E070
E070
ENDCHAR
STARTCHAR 0079
ENCODING 121
SWIDTH 291 0
DWIDTH 14 0
BBX 12 23 0 -8
BITMAP
E070
E070
E070
E070
E070
E070
E070
70E0
70E0
39C0
39C0
1F80
1F80
0F00
0F00
0E00
0E00
1C00
1C00
3800
3800
7800
7000
ENDCHAR
STARTCHAR 007A
ENCODING 122
SWIDTH 291 0
DWIDTH 14 0
BBX 12 15 0 0
BITMAP
FFF0
FFF0
FFF0
00F0
01E0
03C0
0780
0F00
1E00
3C00
7800
F000
FFF0
FFF0
FFF0
ENDCHAR
STARTCHAR 007B
ENCODING 123
SWIDTH 291 0
DWIDTH 14 0
BBX 10 27 1 -3
BITMAP
03C0
07C0
0FC0
1F00
1E00
1E00
1E00
1E00
1E00
1E00
1E00
1E00
3E00
F800
3E00
1E00
1E00
1E00
1E00
1E00
1E00
1E00
1E00
1F00
0FC0
07C0
03C0
ENDCHAR
STARTCHAR 007C
ENCODING 124
SWIDTH 291 0
DWIDTH 14 0
BBX 4 27 4 -3
BITMAP
F0
F0
F0
F0
F0
F0
F0
F0
F0
F0
F0
F0
F0
F0
F0
F0
F0
F0
F0
F0
F0
F0
F0
F0
F0
F0
F0
ENDCHAR
STARTCHAR 007D
ENCODING 125
SWIDTH 291 0
DWIDTH 14 0
BBX 10 27 1 -3
BITMAP
F000
F800
FC00
3E00
1E00
1E00
1E00
1E00
1E00
1E00
1E00
1E00
1F00
07C0
1F00
1E00
1E00
1E00
1E00
1E00
1E00
1E00
1E00
3E00
FC00
F800
F000
ENDCHAR
STARTCHAR 007E
ENCODING 126
SWIDTH 291 0
DWIDTH 14 0
BBX 10 6 1 8
BITMAP
71C0
F9C0
FDC0
EFC0
E7C0
E380
ENDCHAR
STARTCHAR 00A1
ENCODING 161
SWIDTH 291 0
DWIDTH 14 0
BBX 4 22 4 -8
BITMAP
F0
F0
F0
00
00
00
00
F0
F0
F0
F0
F0
F0
F0
F0
F0
F0
F0
F0
F0
F0
F0
ENDCHAR
STARTCHAR 00A2
ENCODING 162
SWIDTH 291 0
DWIDTH 14 0
BBX 12 21 0 0
BITMAP
0F00
0F00
0F00
3FC0
7FE0
FFF0
FFF0
EF70
EF00
EF00
EF00
EF00
EF00
EF70
FFF0
FFF0
7FE0
3FC0
0F00
0F00
0F00
ENDCHAR
STARTCHAR 00A3
ENCODING 163
SWIDTH 291 0
DWIDTH 14 0
BBX 12 21 0 0
BITMAP
07C0
0FE0
1FF0
1C70
1C70
1C00
1C00
1C00
1C00
7F80
7F80
7F80
1C00
1C00
1C00
3C00
7C00
F800
FFF0
FFF0
FFF0
ENDCHAR
STARTCHAR 00A4
ENCODING 164
SWIDTH 291 0
DWIDTH 14 0
BBX 12 12 0 5
BITMAP
4020
EF70
7FE0
3FC0
7FE0
79E0
70E0
79E0
3FC0
7FE0
EF70
4020
ENDCHAR
STARTCHAR 00A5
ENCODING 165
SWIDTH 291 0
DWIDTH 14 0
BBX 12 21 0 0
BITMAP
E070
70E0
70E0
39C0
39C0
1F80
1F80
0F00
0F00
7FE0
7FE0
7FE0
0F00
0F00
7FE0
7FE0
7FE0
0F00
0F00
0F00
0F00
ENDCHAR
STARTCHAR 00A6
ENCODING 166
SWIDTH 291 0
DWIDTH 14 0
BBX 4 27 4 -3
BITMAP
F0
F0
F0
F0
F0
F0
F0
F0
F0
F0
F0
00
00
00
00
00
F0
F0
F0
F0
F0
F0
F0
F0
F0
F0
F0
ENDCHAR
STARTCHAR 00A7
ENCODING 167
SWIDTH 291 0
DWIDTH 14 0
BBX 12 29 0 -8
BITMAP
3FC0
7FE0
FFF0
F0F0
E070
E000
F000
F800
7C00
3F80
7FC0
FFE0
F0F0
E070
E070
F0F0
FFF0
7FE0
3FC0
03C0
01E0
00F0
0070
0070
E070
F0F0
FFE0
7FC0
3FC0
ENDCHAR
STARTCHAR 00A8
ENCODING 168
SWIDTH 291 0
DWIDTH 14 0
BBX 10 3 1 18
BITMAP
F3C0
F3C0
F3C0
ENDCHAR
STARTCHAR 00A9
ENCODING 169
SWIDTH 291 0
DWIDTH 14 0
BBX 12 17 0 4
BITMAP
1F80
3FC0
6060
CF30
DFB0
D9B0
D830
D830
D830
D830
D9B0
D9B0
DFB0
CF30
6060
3FC0
1F80
ENDCHAR
STARTCHAR 00AC
ENCODING 172
SWIDTH 291 0
DWIDTH 14 0
BBX 12 6 0 6
BITMAP
FFF0
FFF0
FFF0
0070
0070
0070
ENDCHAR
STARTCHAR 00AD
ENCODING 173
SWIDTH 291 0
DWIDTH 14 0
BBX 6 3 3 9
BITMAP
FC
FC
FC
ENDCHAR
STARTCHAR 00AE
ENCODING 174
SWIDTH 291 0
DWIDTH 14 0
BBX 12 17 0 4
BITMAP
1F80
3FC0
6060
DF30
DFB0
D9B0
D9B0
DFB0
DF30
DF30
DB30
D9B0
D9B0
D9B0
6060
3FC0
1F80
ENDCHAR
STARTCHAR 00AF
ENCODING 175
SWIDTH 291 0
DWIDTH 14 0
BBX 10 3 1 18
BITMAP
FFC0
FFC0
FFC0
ENDCHAR
STARTCHAR 00B0
ENCODING 176
SWIDTH 291 0
DWIDTH 14 0
BBX 6 6 3 15
BITMAP
78
FC
CC
CC
FC
78
ENDCHAR
STARTCHAR 00B1
ENCODING 177
SWIDTH 291 0
DWIDTH 14 0
BBX 12 18 0 2
BITMAP
0F00
0F00
0F00
0F00
0F00
FFF0
FFF0
FFF0
0F00
0F00
0F00
0F00
0F00
0000
0000
FFF0
FFF0
FFF0
ENDCHAR
STARTCHAR 00B4
ENCODING 180
SWIDTH 291 0
DWIDTH 14 0
BBX 6 7 3 14
BITMAP
1C
18
38
30
70
60
E0
ENDCHAR
STARTCHAR 00B5
ENCODING 181
SWIDTH 291 0
DWIDTH 14 0
BBX 12 23 0 -8
BITMAP
E070
E070
E070
E070
E070
E070
E070
E070
E070
E0F0
E1F0
F3F0
FFF0
FF70
EE70
E000
E000
E000
E000
E000
E000
E000
E000
ENDCHAR
STARTCHAR 00B6
ENCODING 182
SWIDTH 291 0
DWIDTH 14 0
BBX 12 29 0 -8
BITMAP
3FF0
3FF0
7FF0
FFF0
FF70
FF70
FF70
FF70
FF70
FF70
7F70
3F70
0F70
0F70
0F70
0F70
0F70
0F70
0F70
0F70
0F70
0F70
0F70
0F70
0F70
0F70
0F70
0F70
0F70
ENDCHAR
STARTCHAR 00B7
ENCODING 183
SWIDTH 291 0
DWIDTH 14 0
BBX 6 6 3 8
BITMAP
FC
FC
FC
FC
FC
FC
ENDCHAR
STARTCHAR 00B8
ENCODING 184
SWIDTH 291 0
DWIDTH 14 0
BBX 6 5 3 -5
BITMAP
78
38
1C
FC
F8
ENDCHAR
STARTCHAR 00BF
ENCODING 191
SWIDTH 291 0
DWIDTH 14 0
BBX 12 22 0 -8
BITMAP
0F00
0F00
0F00
0000
0000
0000
0000
0F00
0F00
0F00
0F00
1F00
3E00
7C00
F800
F000
E070
E070
F0F0
FFF0
7FE0
3FC0
ENDCHAR
STARTCHAR 00C0
ENCODING 192
SWIDTH 291 0
DWIDTH 14 0
BBX 12 32 0 0
BITMAP
1C00
0C00
0C00
0600
0600
0300
0300
0180
0000
0000
0000
3FC0
7FE0
FFF0
F0F0
E070
E070
E070
E070
E070
FFF0
FFF0
FFF0
E070
E070
E070
E070
E070
E070
E070
E070
E070
ENDCHAR
STARTCHAR 00C1
ENCODING 193
SWIDTH 291 0
DWIDTH 14 0
BBX 12 32 0 0
BITMAP
0380
0300
0300
0600
0600
0C00
0C00
1800
0000
0000
0000
3FC0
7FE0
FFF0
F0F0
E070
E070
E070
E070
E070
FFF0
FFF0
FFF0
E070
E070
E070
E070
E070
E070
E070
E070
E070
ENDCHAR
STARTCHAR 00C2
ENCODING 194
SWIDTH 291 0
DWIDTH 14 0
BBX 12 32 0 0
BITMAP
0400
0600
0600
0F00
0F00
1F80
1980
39C0
0000
0000
0000
3FC0
7FE0
FFF0
F0F0
E070
E070
E070
E070
E070
FFF0
FFF0
FFF0
E070
E070
E070
E070
E070
E070
E070
E070
E070
ENDCHAR
STARTCHAR 00C3
ENCODING 195
SWIDTH 291 0
DWIDTH 14 0
BBX 12 30 0 0
BITMAP
38E0
7CE0
7EE0
77E0
73E0
71C0
0000
0000
0000
3FC0
7FE0
FFF0
F0F0
E070
E070
E070
E070
E070
FFF0
FFF0
FFF0
E070
E070
E070
E070
E070
E070
E070
E070
E070
ENDCHAR
STARTCHAR 00C4
ENCODING 196
SWIDTH 291 0
DWIDTH 14 0
BBX 12 27 0 0
BITMAP
79E0
79E0
79E0
0000
0000
0000
3FC0
7FE0
FFF0
F0F0
E070
E070
E070
E070
E070
FFF0
FFF0
FFF0
E070
E070
E070
E070
E070
E070
E070
E070
E070
ENDCHAR
STARTCHAR 00C5
ENCODING 197
SWIDTH 291 0
DWIDTH 14 0
BBX 12 30 0 0
BITMAP
0F00
1F80
1980
1980
1F80
0F00
0000
0000
0000
3FC0
7FE0
FFF0
F0F0
E070
E070
E070
E070
E070
FFF0
FFF0
FFF0
E070
E070
E070
E070
E070
E070
E070
E070
E070
ENDCHAR
STARTCHAR 00C7
ENCODING 199
SWIDTH 291 0
DWIDTH 14 0
BBX 12 26 0 -5
BITMAP
3FC0
7FE0
FFF0
F0F0
E070
E070
E000
E000
E000
E000
E000
E000
E000
E000
E000
E070
E070
F0F0
FFE0
7FC0
3F80
0F00
0700
0380
1F80
1F00
ENDCHAR
STARTCHAR 00C8
ENCODING 200
SWIDTH 291 0
DWIDTH 14 0
BBX 12 32 0 0
BITMAP
1C00
0C00
0E00
0600
0700
0300
0380
0180
0000
0000
0000
FFF0
FFF0
FFF0
E000
E000
E000
E000
E000
E000
FF80
FF80
FF80
E000
E000
E000
E000
E000
E000
FFF0
FFF0
FFF0
ENDCHAR
STARTCHAR 00C9
ENCODING 201
SWIDTH 291 0
DWIDTH 14 0
BBX 12 32 0 0
BITMAP
0380
0300
0700
0600
0E00
0C00
1C00
1800
0000
0000
0000
FFF0
FFF0
FFF0
E000
E000
E000
E000
E000
E000
FF80
FF80
FF80
E000
E000
E000
E000
E000
E000
FFF0
FFF0
FFF0
ENDCHAR
STARTCHAR 00CA
ENCODING 202
SWIDTH 291 0
DWIDTH 14 0
BBX 12 32 0 0
BITMAP
0400
0600
0600
0F00
0F00
1F80
1980
39C0
0000
0000
0000
FFF0
FFF0
FFF0
E000
E000
E000
E000
E000
E000
FF80
FF80
FF80
E000
E000
E000
E000
E000
E000
FFF0
FFF0
FFF0
ENDCHAR
STARTCHAR 00CB
ENCODING 203
SWIDTH 291 0
DWIDTH 14 0
BBX 12 27 0 0
BITMAP
79E0
79E0
79E0
0000
0000
0000
FFF0
FFF0
FFF0
E000
E000
E000
E000
E000
E000
FF80
FF80
FF80
E000
E000
E000
E000
E000
E000
FFF0
FFF0
FFF0
ENDCHAR
STARTCHAR 00CC
ENCODING 204
SWIDTH 291 0
DWIDTH 14 0
BBX 12 32 0 0
BITMAP
1C00
0C00
0E00
0600
0700
0300
0380
0180
0000
0000
0000
FFF0
FFF0
FFF0
0F00
0F00
0F00
0F00
0F00
0F00
0F00
0F00
0F00
0F00
0F00
0F00
0F00
0F00
0F00
FFF0
FFF0
FFF0
ENDCHAR
STARTCHAR 00CD
ENCODING 205
SWIDTH 291 0
DWIDTH 14 0
BBX 12 32 0 0
BITMAP
0380
0300
0700
0600
0E00
0C00
1C00
1800
0000
0000
0000
FFF0
FFF0
FFF0
0F00
0F00
0F00
0F00
0F00
0F00
0F00
0F00
0F00
0F00
0F00
0F00
0F00
0F00
0F00
FFF0
FFF0
FFF0
ENDCHAR
STARTCHAR 00CE
ENCODING 206
SWIDTH 291 0
DWIDTH 14 0
BBX 12 32 0 0
BITMAP
0400
0600
0600
0F00
0F00
1F80
1980
39C0
0000
0000
0000
FFF0
FFF0
FFF0
0F00
0F00
0F00
0F00
0F00
0F00
0F00
0F00
0F00
0F00
0F00
0F00
0F00
0F00
0F00
FFF0
FFF0
FFF0
ENDCHAR
STARTCHAR 00CF
ENCODING 207
SWIDTH 291 0
DWIDTH 14 0
BBX 12 27 0 0
BITMAP
79E0
79E0
79E0
0000
0000
0000
FFF0
FFF0
FFF0
0F00
0F00
0F00
0F00
0F00
0F00
0F00
0F00
0F00
0F00
0F00
0F00
0F00
0F00
0F00
FFF0
FFF0
FFF0
ENDCHAR
STARTCHAR 00D0
ENCODING 208
SWIDTH 291 0
DWIDTH 14 0
BBX 12 21 0 0
BITMAP
7F00
7F80
7FC0
7BE0
79F0
78F0
7870
7870
7870
FF70
FF70
FF70
7870
7870
7870
78F0
79F0
7BE0
7FC0
7F80
7F00
ENDCHAR
STARTCHAR 00D1
ENCODING 209
SWIDTH 291 0
DWIDTH 14 0
BBX 12 30 0 0
BITMAP
38E0
7CE0
7EE0
77E0
73E0
71C0
0000
0000
0000
E070
E070
F070
F070
F870
F870
FC70
FC70
FE70
EE70
EF70
E770
E7F0
E3F0
E3F0
E1F0
E1F0
E0F0
E0F0
E070
E070
ENDCHAR
STARTCHAR 00D2
ENCODING 210
SWIDTH 291 0
DWIDTH 14 0
BBX 12 32 0 0
BITMAP
1C00
0C00
0E00
0600
0700
0300
0380
0180
0000
0000
0000
3FC0
7FE0
FFF0
F0F0
E070
E070
E070
E070
E070
E070
E070
E070
E070
E070
E070
E070
E070
F0F0
FFF0
7FE0
3FC0
ENDCHAR
STARTCHAR 00D3
ENCODING 211
SWIDTH 291 0
DWIDTH 14 0
BBX 12 32 0 0
BITMAP
0380
0300
0700
0600
0E00
0C00
1C00
1800
0000
0000
0000
3FC0
7FE0
FFF0
F0F0
E070
E070
E070
E070
E070
E070
E070
E070
E070
E070
E070
E070
E070
F0F0
FFF0
7FE0
3FC0
ENDCHAR
STARTCHAR 00D4
ENCODING 212
SWIDTH 291 0
DWIDTH 14 0
BBX 12 32 0 0
BITMAP
0400
0600
0600
0F00
0F00
1F80
1980
39C0
0000
0000
0000
3FC0
7FE0
FFF0
F0F0
E070
E070
E070
E070
E070
E070
E070
E070
E070
E070
E070
E070
E070
F0F0
FFF0
7FE0
3FC0
ENDCHAR
STARTCHAR 00D5
ENCODING 213
SWIDTH 291 0
DWIDTH 14 0
BBX 12 30 0 0
BITMAP
38E0
7CE0
7EE0
77E0
73E0
71C0
0000
0000
0000
3FC0
7FE0
FFF0
F0F0
E070
E070
E070
E070
E070
E070
E070
E070
E070
E070
E070
E070
E070
F0F0
FFF0
7FE0
3FC0
ENDCHAR
STARTCHAR 00D6
ENCODING 214
SWIDTH 291 0
DWIDTH 14 0
BBX 12 27 0 0
BITMAP
79E0
79E0
79E0
0000
0000
0000
3FC0
7FE0
FFF0
F0F0
E070
E070
E070
E070
E070
E070
E070
E070
E070
E070
E070
E070
E070
F0F0
FFF0
7FE0
3FC0
ENDCHAR
STARTCHAR 00D7
ENCODING 215
SWIDTH 291 0
DWIDTH 14 0
BBX 10 12 1 5
BITMAP
F3C0
7380
3F00
3F00
1E00
1E00
1E00
1E00
3F00
3F00
7380
F3C0
ENDCHAR
STARTCHAR 00D8
ENCODING 216
SWIDTH 291 0
DWIDTH 14 0
BBX 12 21 0 0
BITMAP
3FC0
7FE0
FFF0
F0F0
E1F0
E1F0
E3F0
E3F0
E7F0
E770
EF70
EE70
FE70
FC70
FC70
F870
F870
F0F0
FFF0
7FE0
3FC0
ENDCHAR
STARTCHAR 00D9
ENCODING 217
SWIDTH 291 0
DWIDTH 14 0
BBX 12 32 0 0
BITMAP
1C00
0C00
0E00
0600
0700
0300
0380
0180
0000
0000
0000
E070
E070
E070
E070
E070
E070
E070
E070
E070
E070
E070
E070
E070
E070
E070
E070
E070
F0F0
FFF0
7FE0
3FC0
ENDCHAR
STARTCHAR 00DA
ENCODING 218
SWIDTH 291 0
DWIDTH 14 0
BBX 12 32 0 0
BITMAP
0380
0300
0700
0600
0E00
0C00
1C00
1800
0000
0000
0000
E070
E070
E070
E070
E070
E070
E070
E070
E070
E070
E070
E070
E070
E070
E070
E070
E070
F0F0
FFF0
7FE0
3FC0
ENDCHAR
STARTCHAR 00DB
ENCODING 219
SWIDTH 291 0
DWIDTH 14 0
BBX 12 32 0 0
BITMAP
0400
0600
0600
0F00
0F00
1F80
1980
39C0
0000
0000
0000
E070
E070
E070
E070
E070
E070
E070
E070
E070
E070
E070
E070
E070
E070
E070
E070
E070
F0F0
FFF0
7FE0
3FC0
ENDCHAR
STARTCHAR 00DC
ENCODING 220
SWIDTH 291 0
DWIDTH 14 0
BBX 12 27 0 0
BITMAP
79E0
79E0
79E0
0000
0000
0000
E070
E070
E070
E070
E070
E070
E070
E070
E070
E070
E070
E070
E070
E070
E070
E070
E070
F0F0
FFF0
7FE0
3FC0
ENDCHAR
STARTCHAR 00DD
ENCODING 221
SWIDTH 291 0
DWIDTH 14 0
BBX 12 32 0 0
BITMAP
0380
0300
0300
0600
0600
0C00
0C00
1800
0000
0000
0000
E070
E070
70E0
70E0
39C0
39C0
1F80
1F80
0F00
0F00
0F00
0F00
0F00
0F00
0F00
0F00
0F00
0F00
0F00
0F00
0F00
ENDCHAR
STARTCHAR 00DE
ENCODING 222
SWIDTH 291 0
DWIDTH 14 0
BBX 12 21 0 0
BITMAP
E000
E000
E000
E000
EF80
FFC0
FFE0
F0F0
E070
E070
E070
E070
E070
E070
F0F0
FFE0
FFC0
EF80
E000
E000
E000
ENDCHAR
STARTCHAR 00DF
ENCODING 223
SWIDTH 291 0
DWIDTH 14 0
BBX 12 21 0 0
BITMAP
3F00
7F80
FFC0
F3E0
E1E0
E3E0
E7C0
EF80
EF00
EF00
EF80
E7C0
E3E0
E1F0
E0F0
E070
E070
E8F0
EFF0
EFE0
E7C0
ENDCHAR
STARTCHAR 00E0
ENCODING 224
SWIDTH 291 0
DWIDTH 14 0
BBX 12 26 0 0
BITMAP
1C00
0C00
0E00
0600
0700
0300
0380
0180
0000
0000
0000
3F70
7FF0
FFF0
F0F0
E070
E070
E070
E070
E070
E070
E070
F0F0
FFF0
7FF0
3F70
ENDCHAR
STARTCHAR 00E1
ENCODING 225
SWIDTH 291 0
DWIDTH 14 0
BBX 12 26 0 0
BITMAP
0380
0300
0700
0600
0E00
0C00
1C00
1800
0000
0000
0000
3F70
7FF0
FFF0
F0F0
E070
E070
E070
E070
E070
E070
E070
F0F0
FFF0
7FF0
3F70
ENDCHAR
STARTCHAR 00E2
ENCODING 226
SWIDTH 291 0
DWIDTH 14 0
BBX 12 26 0 0
BITMAP
0400
0600
0600
0F00
0F00
1F80
1980
39C0
0000
0000
0000
3F70
7FF0
FFF0
F0F0
E070
E070
E070
E070
E070
E070
E070
F0F0
FFF0
7FF0
3F70
ENDCHAR
STARTCHAR 00E3
ENCODING 227
SWIDTH 291 0
DWIDTH 14 0
BBX 12 24 0 0
BITMAP
38E0
7CE0
7EE0
77E0
73E0
71C0
0000
0000
0000
3F70
7FF0
FFF0
F0F0
E070
E070
E070
E070
E070
E070
E070
F0F0
FFF0
7FF0
3F70
ENDCHAR
STARTCHAR 00E4
ENCODING 228
SWIDTH 291 0
DWIDTH 14 0
BBX 12 21 0 0
BITMAP
79E0
79E0
79E0
0000
0000
0000
3F70
7FF0
FFF0
F0F0
E070
E070
E070
E070
E070
E070
E070
F0F0
FFF0
7FF0
3F70
ENDCHAR
STARTCHAR 00E5
ENCODING 229
SWIDTH 291 0
DWIDTH 14 0
BBX 12 24 0 0
BITMAP
0F00
1F80
1980
1980
1F80
0F00
0000
0000
0000
3F70
7FF0
FFF0
F0F0
E070
E070
E070
E070
E070
E070
E070
F0F0
FFF0
7FF0
3F70
ENDCHAR
STARTCHAR 00E7
ENCODING 231
SWIDTH 291 0
DWIDTH 14 0
BBX 12 20 0 -5
BITMAP
3FC0
7FE0
FFF0
F0F0
E070
E000
E000
E000
E000
E000
E070
F0F0
FFE0
7FC0
3F80
0F00
0700
0380
1F80
1F00
ENDCHAR
STARTCHAR 00E8
ENCODING 232
SWIDTH 291 0
DWIDTH 14 0
BBX 12 26 0 0
BITMAP
1C00
0C00
0E00
0600
0700
0300
0380
0180
0000
0000
0000
3FC0
7FE0
FFF0
F0F0
E070
E070
FFF0
FFF0
FFF0
E000
E070
F0F0
FFF0
7FE0
3FC0
ENDCHAR
STARTCHAR 00E9
ENCODING 233
SWIDTH 291 0
DWIDTH 14 0
BBX 12 26 0 0
BITMAP
0380
0300
0700
0600
0E00
0C00
1C00
1800
0000
0000
0000
3FC0
7FE0
FFF0
F0F0
E070
E070
FFF0
FFF0
FFF0
E000
E070
F0F0
FFF0
7FE0
3FC0
ENDCHAR
STARTCHAR 00EA
ENCODING 234
SWIDTH 291 0
DWIDTH 14 0
BBX 12 26 0 0
BITMAP
0400
0600
0600
0F00
0F00
1F80
1980
39C0
0000
0000
0000
3FC0
7FE0
FFF0
F0F0
E070
E070
FFF0
FFF0
FFF0
E000
E000
F0F0
FFF0
7FE0
3FC0
ENDCHAR
STARTCHAR 00EB
ENCODING 235
SWIDTH 291 0
DWIDTH 14 0
BBX 12 21 0 0
BITMAP
79E0
79E0
79E0
0000
0000
0000
3FC0
7FE0
FFF0
F0F0
E070
E070
FFF0
FFF0
FFF0
E000
E070
F0F0
FFF0
7FE0
3FC0
ENDCHAR
STARTCHAR 00EC
ENCODING 236
SWIDTH 291 0
DWIDTH 14 0
BBX 12 26 0 0
BITMAP
1C00
0C00
0E00
0600
0700
0300
0380
0180
0000
0000
0000
1F00
1F00
1F00
0F00
0F00
0F00
0F00
0F00
0F00
0F00
0F00
0F00
FFF0
FFF0
FFF0
ENDCHAR
STARTCHAR 00ED
ENCODING 237
SWIDTH 291 0
DWIDTH 14 0
BBX 12 26 0 0
BITMAP
0380
0300
0700
0600
0E00
0C00
1C00
1800
0000
0000
0000
1F00
1F00
1F00
0F00
0F00
0F00
0F00
0F00
0F00
0F00
0F00
0F00
FFF0
FFF0
FFF0
ENDCHAR
STARTCHAR 00EE
ENCODING 238
SWIDTH 291 0
DWIDTH 14 0
BBX 12 26 0 0
BITMAP
0400
0600
0600
0F00
0F00
1F80
1980
39C0
0000
0000
0000
1F00
1F00
1F00
0F00
0F00
0F00
0F00
0F00
0F00
0F00
0F00
0F00
FFF0
FFF0
FFF0
ENDCHAR
STARTCHAR 00EF
ENCODING 239
SWIDTH 291 0
DWIDTH 14 0
BBX 12 21 0 0
BITMAP
79E0
79E0
79E0
0000
0000
0000
1F00
1F00
1F00
0F00
0F00
0F00
0F00
0F00
0F00
0F00
0F00
0F00
FFF0
FFF0
FFF0
ENDCHAR
STARTCHAR 00F0
ENCODING 240
SWIDTH 291 0
DWIDTH 14 0
BBX 12 23 0 0
BITMAP
0800
3800
7D80
3FC0
1FC0
7FA0
FF00
7F00
6780
0780
03C0
3FC0
7FE0
FFE0
F0F0
E0F0
E070
E070
E070
F0F0
FFE0
7FC0
3FC0
ENDCHAR
STARTCHAR 00F1
ENCODING 241
SWIDTH 291 0
DWIDTH 14 0
BBX 12 24 0 0
BITMAP
38E0
7CE0
7EE0
77E0
73E0
71C0
0000
0000
0000
EFC0
FFE0
FFF0
F0F0
E070
E070
E070
E070
E070
E070
E070
E070
E070
E070
E070
ENDCHAR
STARTCHAR 00F2
ENCODING 242
SWIDTH 291 0
DWIDTH 14 0
BBX 12 26 0 0
BITMAP
1C00
0C00
0E00
0600
0700
0300
0380
0180
0000
0000
0000
3FC0
7FE0
FFF0
F0F0
E070
E070
E070
E070
E070
E070
E070
F0F0
FFF0
7FE0
3FC0
ENDCHAR
STARTCHAR 00F3
ENCODING 243
SWIDTH 291 0
DWIDTH 14 0
BBX 12 26 0 0
BITMAP
0380
0300
0700
0600
0E00
0C00
1C00
1800
0000
0000
0000
3FC0
7FE0
FFF0
F0F0
E070
E070
E070
E070
E070
E070
E070
F0F0
FFF0
7FE0
3FC0
ENDCHAR
STARTCHAR 00F4
ENCODING 244
SWIDTH 291 0
DWIDTH 14 0
BBX 12 26 0 0
BITMAP
0400
0600
0600
0F00
0F00
1F80
1980
39C0
0000
0000
0000
3FC0
7FE0
FFF0
F0F0
E070
E070
E070
E070
E070
E070
E070
F0F0
FFF0
7FE0
3FC0
ENDCHAR
STARTCHAR 00F5
ENCODING 245
SWIDTH 291 0
DWIDTH 14 0
BBX 12 24 0 0
BITMAP
38E0
7CE0
7EE0
77E0
73E0
71C0
0000
0000
0000
3FC0
7FE0
FFF0
F0F0
E070
E070
E070
E070
E070
E070
E070
F0F0
FFF0
7FE0
3FC0
ENDCHAR
STARTCHAR 00F6
ENCODING 246
SWIDTH 291 0
DWIDTH 14 0
BBX 12 21 0 0
BITMAP
79E0
79E0
79E0
0000
0000
0000
3FC0
7FE0
FFF0
F0F0
E070
E070
E070
E070
E070
E070
E070
F0F0
FFF0
7FE0
3FC0
ENDCHAR
STARTCHAR 00F7
ENCODING 247
SWIDTH 291 0
DWIDTH 14 0
BBX 12 15 0 3
BITMAP
0F00
0F00
0F00
0000
0000
0000
FFF0
FFF0
FFF0
0000
0000
0000
0F00
0F00
0F00
ENDCHAR
STARTCHAR 00F8
ENCODING 248
SWIDTH 291 0
DWIDTH 14 0
BBX 12 15 0 0
BITMAP
3FC0
7FE0
FFF0
F3F0
E3F0
E7F0
E770
EF70
EE70
FE70
FC70
FCF0
FFF0
7FE0
3FC0
ENDCHAR
STARTCHAR 00F9
ENCODING 249
SWIDTH 291 0
DWIDTH 14 0
BBX 12 26 0 0
BITMAP
1C00
0C00
0E00
0600
0700
0300
0380
0180
0000
0000
0000
E070
E070
E070
E070
E070
E070
E070
E070
E070
E070
E070
F0F0
FFF0
7FF0
3F70
ENDCHAR
STARTCHAR 00FA
ENCODING 250
SWIDTH 291 0
DWIDTH 14 0
BBX 12 26 0 0
BITMAP
0380
0300
0700
0600
0E00
0C00
1C00
1800
0000
0000
0000
E070
E070
E070
E070
E070
E070
E070
E070
E070
E070
E070
F0F0
FFF0
7FF0
3F70
ENDCHAR
STARTCHAR 00FB
ENCODING 251
SWIDTH 291 0
DWIDTH 14 0
BBX 12 26 0 0
BITMAP
0400
0600
0600
0F00
0F00
1F80
1980
39C0
0000
0000
0000
E070
E070
E070
E070
E070
E070
E070
E070
E070
E070
E070
F0F0
FFF0
7FF0
3F70
ENDCHAR
STARTCHAR 00FC
ENCODING 252
SWIDTH 291 0
DWIDTH 14 0
BBX 12 21 0 0
BITMAP
79E0
79E0
79E0
0000
0000
0000
E070
E070
E070
E070
E070
E070
E070
E070
E070
E070
E070
F0F0
FFF0
7FF0
3F70
ENDCHAR
STARTCHAR 00FD
ENCODING 253
SWIDTH 291 0
DWIDTH 14 0
BBX 12 34 0 -8
BITMAP
0380
0300
0300
0600
0600
0C00
0C00
1800
0000
0000
0000
E070
E070
E070
E070
E070
E070
E070
70E0
70E0
39C0
39C0
1F80
1F80
0F00
0F00
0E00
0E00
1C00
1C00
3800
3800
7000
7000
ENDCHAR
STARTCHAR 00FE
ENCODING 254
SWIDTH 291 0
DWIDTH 14 0
BBX 12 29 0 -8
BITMAP
E000
E000
E000
E000
E000
E000
EFC0
FFE0
FFF0
F0F0
E070
E070
E070
E070
E070
E070
E070
F0F0
FFF0
FFE0
EFC0
E000
E000
E000
E000
E000
E000
E000
E000
ENDCHAR
STARTCHAR 00FF
ENCODING 255
SWIDTH 291 0
DWIDTH 14 0
BBX 12 29 0 -8
BITMAP
79E0
79E0
79E0
0000
0000
0000
E070
E070
E070
E070
E070
E070
E070
F0F0
70E0
79E0
39C0
3FC0
1F80
1F80
0F00
0F00
0E00
1E00
1C00
3C00
3800
7800
7000
ENDCHAR
STARTCHAR 0153
ENCODING 339
SWIDTH 291 0
DWIDTH 14 0
BBX 12 15 0 0
BITMAP
39C0
7FE0
FFF0
FFF0
EF70
EF70
EFF0
EFF0
EFF0
EF00
EF70
FFF0
FFF0
7FE0
39C0
ENDCHAR
STARTCHAR 0160
ENCODING 352
SWIDTH 291 0
DWIDTH 14 0
BBX 12 32 0 0
BITMAP
39C0
1980
1F80
0F00
0F00
0600
0600
0400
0000
0000
0000
3FC0
7FE0
FFF0
F0F0
E070
E070
E000
E000
F000
FFC0
7FE0
3FF0
00F0
0070
0070
E070
E070
F0F0
FFF0
7FE0
3FC0
ENDCHAR
STARTCHAR 0161
ENCODING 353
SWIDTH 291 0
DWIDTH 14 0
BBX 12 26 0 0
BITMAP
39C0
1980
1F80
0F00
0F00
0600
0600
0400
0000
0000
0000
3FC0
7FE0
FFF0
F0F0
E070
F000
FFC0
7FE0
3FF0
00F0
E070
F0F0
FFF0
7FE0
3FC0
ENDCHAR
STARTCHAR 0178
ENCODING 376
SWIDTH 291 0
DWIDTH 14 0
BBX 12 27 0 0
BITMAP
79E0
79E0
79E0
0000
0000
0000
E070
E070
F0F0
70E0
79E0
39C0
3FC0
1F80
1F80
0F00
0F00
0F00
0F00
0F00
0F00
0F00
0F00
0F00
0F00
0F00
0F00
ENDCHAR
STARTCHAR 017D
ENCODING 381
SWIDTH 291 0
DWIDTH 14 0
BBX 12 32 0 0
BITMAP
39C0
1980
1F80
0F00
0F00
0600
0600
0400
0000
0000
0000
FFF0
FFF0
FFF0
00E0
01E0
01C0
03C0
0380
0780
0700
0F00
0E00
1E00
1C00
3C00
3800
7800
7000
FFF0
FFF0
FFF0
ENDCHAR
STARTCHAR 017E
ENCODING 382
SWIDTH 291 0
DWIDTH 14 0
BBX 12 26 0 0
BITMAP
39C0
1980
1F80
0F00
0F00
0600
0600
0400
0000
0000
0000
FFF0
FFF0
FFF0
00F0
01E0
03C0
0780
0F00
1E00
3C00
7800
F000
FFF0
FFF0
FFF0
ENDCHAR
STARTCHAR 0192
ENCODING 402
SWIDTH 291 0
DWIDTH 14 0
BBX 12 8 0 13
BITMAP
FB30
FB30
63F0
63F0
63F0
63B0
6330
6330
ENDCHAR
STARTCHAR 2018
ENCODING 8216
SWIDTH 291 0
DWIDTH 14 0
BBX 4 7 4 14
BITMAP
30
20
60
40
F0
F0
F0
ENDCHAR
STARTCHAR 2019
ENCODING 8217
SWIDTH 291 0
DWIDTH 14 0
BBX 4 7 4 14
BITMAP
F0
F0
F0
20
60
40
C0
ENDCHAR
STARTCHAR 201C
ENCODING 8220
SWIDTH 291 0
DWIDTH 14 0
BBX 8 7 3 14
BITMAP
23
62
46
C4
EF
EF
EF
ENDCHAR
STARTCHAR 201D
ENCODING 8221
SWIDTH 291 0
DWIDTH 14 0
BBX 8 7 1 14
BITMAP
F7
F7
F7
23
62
46
C4
ENDCHAR
STARTCHAR 2020
ENCODING 8224
SWIDTH 291 0
DWIDTH 14 0
BBX 10 29 1 -8
BITMAP
1E00
1E00
1E00
1E00
FFC0
FFC0
FFC0
1E00
1E00
1E00
1E00
1E00
1E00
1E00
1E00
1E00
1E00
1E00
1E00
1E00
1E00
1E00
1E00
1E00
1E00
1E00
1E00
1E00
1E00
ENDCHAR
STARTCHAR 2022
ENCODING 8226
SWIDTH 291 0
DWIDTH 14 0
BBX 12 12 0 5
BITMAP
0400
0600
36C0
3FC0
1F80
7FE0
FFF0
1F80
3FC0
36C0
0600
0400
ENDCHAR
STARTCHAR 20AC
ENCODING 8364
SWIDTH 291 0
DWIDTH 14 0
BBX 12 21 0 0
BITMAP
07C0
0FE0
1FF0
1C70
1C70
1C00
7FE0
7FE0
FFC0
1C00
1C00
1C00
7FC0
7F80
FF80
1C00
1C70
1C70
1FF0
0FE0
07C0
ENDCHAR
STARTCHAR 2122
ENCODING 8482
SWIDTH 3208 0
DWIDTH 154 0
BBX 152 35 1 -3
BITMAP
FFFFFFFFFFFFFFFFFFFFFFFFFFFFFFFFFFFFFF
FFFFFFFFFFFFFFFFFFFFFFFFFFFFFFFFFFFFFF
C0000000000000000000000000000000000003
C0000000000000000000000000000000000003
C0000000000000000000000000000000000003
C381C003030006000180C360700C0003000003
C7C1C003030007000180C360F80C0003000003
C6C10003038007800000C360C80C0003000003
C7C3DCD3C3CD86CB7198C3E0F1CD1C734D1CD3
C7C3FEFBC3ED86DF69BCC3E07BEFBEFBEFBEF3
C6C136DB036D86DB6DBEC3601B2DBECB6DBEC3
C6C136DB036D879F6DBEC3609B2DBECB6DBEC3
C6C13EDBC3CF871F6DBCC378FBEDBEFB6DBEC3
C6C11CD9C387060B6D98C37871CD9C736D9CC3
C0000000000300000000000000000000000003
C0000000000600000000000000000000000003
C0000000000600000000000000000000000003
C0000000000000000000000000000000000003
C0000000000000000000000000000000000003
C0000000000000000000000000000000000003
C0000000636000000000000000036700000003
C0000000C367000C0006C00180036580000003
C0000000C367000C0006C00180036180000003
C0000000C004000C0006C00180000180000003
C0000000C00F33CF38E6CC3BC6780180000003
C0000000C00F7BEF7DF6DE7FCF780180000003
C0000000C004DB6C61B6DB619B600180000003
C0000000C004DB6C61B6DF619B600180000003
C0000000C004DB6C65B6D9659B600180000003
C0000000E0047B6779E6DE79CE600700000003
C0000000400432242084882084400400000003
C0000000000000000000000000000000000003
C0000000000000000000000000000000000003
FFFFFFFFFFFFFFFFFFFFFFFFFFFFFFFFFFFFFF
FFFFFFFFFFFFFFFFFFFFFFFFFFFFFFFFFFFFFF
ENDCHAR
ENDFONT
